<svg xmlns="http://www.w3.org/2000/svg" viewBox="0 0 512 512" width="100%" height="100%">
  <!-- Icon Base -->
  <rect width="512" height="512" rx="112" fill="#007FFF" />
  
  <!-- Subtle Border -->
  <rect x="2" y="2" width="508" height="508" rx="110" fill="none" stroke="#ffffff" stroke-opacity="0.1" stroke-width="3" />
  
  <!-- Letter i (Arvo Font Outline) -->
  <path d="M210.856 206.653H272.632V364.564H301.144V396.0H211.222V364.564H238.272V238.089H210.856ZM231.875 139.577Q231.875 134.825 233.794 130.53Q235.713 126.235 238.911 123.037Q242.11 119.838 246.496 117.919Q250.883 116.0 255.817 116.0Q260.569 116.0 264.864 117.919Q269.159 119.838 272.358 123.037Q275.556 126.235 277.475 130.53Q279.394 134.825 279.394 139.577Q279.394 144.512 277.475 148.898Q275.556 153.285 272.358 156.666Q269.159 160.047 264.864 161.966Q260.569 163.885 255.817 163.885Q250.883 163.885 246.496 161.966Q242.11 160.047 238.911 156.666Q235.713 153.285 233.794 148.898Q231.875 144.512 231.875 139.577Z" 
        fill="#ffffff" />
</svg>
